<svg xmlns="http://www.w3.org/2000/svg" xmlns:xlink="http://www.w3.org/1999/xlink" width="1024" zoomAndPan="magnify" viewBox="0 0 768 767.999994" height="1024" preserveAspectRatio="xMidYMid meet" version="1.0"><path fill="#39a7ff" d="M 721.488281 683.160156 L 721.65625 683.160156 Z M 141.140625 38.910156 C 133.800781 38.910156 126.859375 42.234375 119.316406 48.839844 C 118.492188 49.621094 107.703125 59.859375 100.683594 66.539062 L 94.554688 72.332031 C 58.753906 105.800781 42.523438 166.046875 53.207031 225.84375 C 56.636719 245.152344 62.1875 265.167969 69.695312 285.304688 C 107.535156 386.925781 179.363281 475.277344 232.96875 531.519531 C 286.332031 588.128906 370.726562 664.585938 470.15625 707.804688 C 489.878906 716.371094 509.558594 722.992188 528.652344 727.464844 C 587.792969 741.320312 648.832031 728.339844 684.140625 694.394531 L 690.023438 688.800781 C 696.859375 682.347656 707.527344 672.25 709.074219 670.761719 C 731.066406 648.144531 720.078125 629.339844 675.972656 584.480469 L 664.9375 573.15625 C 637 544.160156 590.121094 495.613281 550.488281 500.347656 C 539.714844 501.621094 528.46875 509.480469 516.558594 517.789062 C 504.746094 526.03125 492.53125 534.554688 477.878906 539.195312 C 438.539062 551.671875 398.648438 543.472656 365.5 516.164062 C 345.683594 499.828125 325.519531 480.714844 307.203125 460.945312 C 288.675781 441.851562 270.683594 420.703125 255.453125 400.058594 C 229.964844 365.515625 223.925781 325.242188 238.472656 286.625 C 243.894531 272.234375 253.058594 260.492188 261.933594 249.136719 C 270.867188 237.691406 279.3125 226.886719 281.152344 216.1875 C 287.972656 176.773438 242.027344 127.472656 214.5625 98.003906 L 203.867188 86.386719 C 174.765625 54.554688 157.0625 38.910156 141.140625 38.910156 Z M 576.375 767.984375 C 556.605469 767.984375 537.601562 765.578125 520.652344 761.609375 C 499.519531 756.675781 477.820312 749.378906 456.164062 739.972656 C 351.277344 694.394531 263.050781 614.582031 207.515625 555.65625 C 151.699219 497.113281 76.730469 404.734375 36.824219 297.550781 C 28.578125 275.4375 22.480469 253.382812 18.664062 232.003906 C 8.546875 175.347656 16.871094 96.914062 70.601562 46.722656 L 76.53125 41.085938 C 84.007812 33.988281 95.640625 22.941406 96.117188 22.527344 C 149.859375 -24.660156 197.953125 27.921875 229.75 62.722656 L 240.234375 74.09375 C 272.125 108.316406 325.503906 165.601562 315.726562 222.167969 C 312.367188 241.523438 300.261719 257.046875 289.582031 270.730469 C 281.996094 280.433594 274.820312 289.613281 271.296875 298.992188 C 260.9375 326.484375 265.230469 354.238281 283.679688 379.234375 C 297.992188 398.621094 314.929688 418.527344 332.660156 436.808594 C 350.207031 455.75 369.195312 473.726562 387.8125 489.097656 C 411.796875 508.867188 439.277344 514.613281 467.289062 505.773438 C 476.835938 502.722656 486.371094 496.070312 496.46875 489.023438 C 510.722656 479.089844 526.84375 467.8125 546.367188 465.511719 C 603.546875 458.769531 657.734375 515.136719 690.195312 548.820312 L 701 559.886719 C 734.039062 593.507812 783.984375 644.328125 734.039062 695.421875 C 733.257812 696.171875 721.535156 707.296875 714.132812 714.285156 L 708.429688 719.695312 C 671.480469 755.21875 621.964844 767.984375 576.375 767.984375 " fill-opacity="1" fill-rule="nonzero"/></svg>