<svg xmlns="http://www.w3.org/2000/svg" xmlns:xlink="http://www.w3.org/1999/xlink" width="1024" zoomAndPan="magnify" viewBox="0 0 768 767.999994" height="1024" preserveAspectRatio="xMidYMid meet" version="1.0"><defs><clipPath id="a07ce6b839"><path d="M 177 514 L 189.203125 514 L 189.203125 515.332031 L 177 515.332031 Z M 177 514 " clip-rule="nonzero"/></clipPath><clipPath id="811bc1e638"><path d="M 39.953125 33.082031 L 68 33.082031 L 68 515.332031 L 39.953125 515.332031 Z M 39.953125 33.082031 " clip-rule="nonzero"/></clipPath><clipPath id="c02e732f3e"><path d="M 53 473 L 189.203125 473 L 189.203125 501 L 53 501 Z M 53 473 " clip-rule="nonzero"/></clipPath><clipPath id="3cc3365b3d"><path d="M 39.953125 507.570312 L 68 507.570312 L 68 725.78125 L 39.953125 725.78125 Z M 39.953125 507.570312 " clip-rule="nonzero"/></clipPath><clipPath id="e16c39e19d"><path d="M 700.898438 464 L 715 464 L 715 492 L 700.898438 492 Z M 700.898438 464 " clip-rule="nonzero"/></clipPath><clipPath id="fa92f1c0f3"><path d="M 700.898438 216 L 715 216 L 715 244 L 700.898438 244 Z M 700.898438 216 " clip-rule="nonzero"/></clipPath><clipPath id="36d17c90d5"><path d="M 700.898438 23.78125 L 727.703125 23.78125 L 727.703125 725.78125 L 700.898438 725.78125 Z M 700.898438 23.78125 " clip-rule="nonzero"/></clipPath><clipPath id="adcf312dfe"><path d="M 665 225 L 705.761719 225 L 705.761719 254 L 665 254 Z M 665 225 " clip-rule="nonzero"/></clipPath><clipPath id="b4df987f5f"><path d="M 516.75 453.09375 L 569 453.09375 L 569 516.09375 L 516.75 516.09375 Z M 516.75 453.09375 " clip-rule="nonzero"/></clipPath><clipPath id="d26bbdb5be"><path d="M 527 476 L 705.75 476 L 705.75 504 L 527 504 Z M 527 476 " clip-rule="nonzero"/></clipPath><clipPath id="05272aee9c"><path d="M 189.34375 505 L 432 505 L 432 507.53125 L 189.34375 507.53125 Z M 189.34375 505 " clip-rule="nonzero"/></clipPath><clipPath id="d5ccd932c8"><path d="M 189.34375 23.78125 L 212 23.78125 L 212 507.53125 L 189.34375 507.53125 Z M 189.34375 23.78125 " clip-rule="nonzero"/></clipPath><clipPath id="211b48887e"><path d="M 390 23.78125 L 418 23.78125 L 418 507.53125 L 390 507.53125 Z M 390 23.78125 " clip-rule="nonzero"/></clipPath><clipPath id="1df9ec3e84"><path d="M 189.34375 257 L 505.84375 257 L 505.84375 507.53125 L 189.34375 507.53125 Z M 189.34375 257 " clip-rule="nonzero"/></clipPath><clipPath id="2be05de332"><path d="M 189.34375 464 L 198 464 L 198 492 L 189.34375 492 Z M 189.34375 464 " clip-rule="nonzero"/></clipPath><clipPath id="3506265fc4"><path d="M 468 189 L 505.84375 189 L 505.84375 304 L 468 304 Z M 468 189 " clip-rule="nonzero"/></clipPath><clipPath id="ae45c217e9"><path d="M 482 143 L 505.84375 143 L 505.84375 255 L 482 255 Z M 482 143 " clip-rule="nonzero"/></clipPath><clipPath id="4c9b73df94"><path d="M 462.816406 257 L 556 257 L 556 422.78125 L 462.816406 422.78125 Z M 462.816406 257 " clip-rule="nonzero"/></clipPath><clipPath id="42735d79d7"><path d="M 593 348 L 647.316406 348 L 647.316406 400 L 593 400 Z M 593 348 " clip-rule="nonzero"/></clipPath><clipPath id="7a1f352118"><path d="M 593.574219 350.289062 L 642 350.289062 L 642 372 L 593.574219 372 Z M 593.574219 350.289062 " clip-rule="nonzero"/></clipPath><clipPath id="b8b30cdde0"><path d="M 593.574219 350.289062 L 656 350.289062 L 656 400 L 593.574219 400 Z M 593.574219 350.289062 " clip-rule="nonzero"/></clipPath><clipPath id="15487fc5d1"><path d="M 169 506.683594 L 432 506.683594 L 432 587 L 169 587 Z M 169 506.683594 " clip-rule="nonzero"/></clipPath><clipPath id="037274d099"><path d="M 183 506.683594 L 212 506.683594 L 212 522 L 183 522 Z M 183 506.683594 " clip-rule="nonzero"/></clipPath><clipPath id="7f82a8c642"><path d="M 390 506.683594 L 418 506.683594 L 418 522 L 390 522 Z M 390 506.683594 " clip-rule="nonzero"/></clipPath><clipPath id="dc676808e7"><path d="M 183 506.683594 L 556 506.683594 L 556 656 L 183 656 Z M 183 506.683594 " clip-rule="nonzero"/></clipPath></defs><g clip-path="url(#a07ce6b839)"><path fill="#e0f4ff" d="M 397.707031 597.253906 L 218.816406 597.253906 C 196.046875 597.253906 177.527344 578.734375 177.527344 555.964844 C 177.527344 533.195312 196.046875 514.675781 218.816406 514.675781 L 397.707031 514.675781 C 420.476562 514.675781 438.996094 533.195312 438.996094 555.964844 C 438.996094 578.734375 420.476562 597.253906 397.707031 597.253906 Z M 218.816406 542.210938 C 211.21875 542.210938 205.050781 548.378906 205.050781 555.980469 C 205.050781 563.578125 211.21875 569.746094 218.816406 569.746094 L 397.707031 569.746094 C 405.308594 569.746094 411.476562 563.578125 411.476562 555.980469 C 411.476562 548.378906 405.308594 542.210938 397.707031 542.210938 Z M 218.816406 542.210938 " fill-opacity="1" fill-rule="nonzero"/></g><g clip-path="url(#811bc1e638)"><path fill="#e0f4ff" d="M 39.925781 33.054688 L 67.445312 33.054688 L 67.445312 734.855469 L 39.925781 734.855469 Z M 39.925781 33.054688 " fill-opacity="1" fill-rule="nonzero"/></g><g clip-path="url(#c02e732f3e)"><path fill="#e0f4ff" d="M 53.679688 473.402344 L 205.050781 473.402344 L 205.050781 500.921875 L 53.679688 500.921875 Z M 53.679688 473.402344 " fill-opacity="1" fill-rule="nonzero"/></g><path fill="#e0f4ff" d="M 53.679688 225.703125 L 163.761719 225.703125 L 163.761719 253.222656 L 53.679688 253.222656 Z M 53.679688 225.703125 " fill-opacity="1" fill-rule="nonzero"/><g clip-path="url(#3cc3365b3d)"><path fill="#e0f4ff" d="M 39.925781 23.753906 L 67.445312 23.753906 L 67.445312 725.554688 L 39.925781 725.554688 Z M 39.925781 23.753906 " fill-opacity="1" fill-rule="nonzero"/></g><g clip-path="url(#e16c39e19d)"><path fill="#e0f4ff" d="M 521.558594 464.101562 L 714.21875 464.101562 L 714.21875 491.621094 L 521.558594 491.621094 Z M 521.558594 464.101562 " fill-opacity="1" fill-rule="nonzero"/></g><g clip-path="url(#fa92f1c0f3)"><path fill="#e0f4ff" d="M 659.164062 216.398438 L 714.203125 216.398438 L 714.203125 243.921875 L 659.164062 243.921875 Z M 659.164062 216.398438 " fill-opacity="1" fill-rule="nonzero"/></g><g clip-path="url(#36d17c90d5)"><path fill="#e0f4ff" d="M 700.449219 23.753906 L 727.972656 23.753906 L 727.972656 725.554688 L 700.449219 725.554688 Z M 700.449219 23.753906 " fill-opacity="1" fill-rule="nonzero"/></g><g clip-path="url(#adcf312dfe)"><path fill="#e0f4ff" d="M 665.355469 225.703125 L 720.398438 225.703125 L 720.398438 253.222656 L 665.355469 253.222656 Z M 665.355469 225.703125 " fill-opacity="1" fill-rule="nonzero"/></g><g clip-path="url(#b4df987f5f)"><path fill="#e0f4ff" d="M 540.882812 668.832031 L 479.804688 668.832031 C 460.828125 668.832031 444.355469 655.96875 439.761719 637.578125 L 416.503906 555.160156 L 443.007812 547.6875 L 466.367188 630.492188 C 468.011719 637.019531 473.492188 641.3125 479.816406 641.3125 L 540.898438 641.3125 C 540.898438 630.621094 534.359375 621.535156 524.242188 618.171875 L 501.671875 610.628906 L 478.917969 510.492188 C 475.925781 498.5 464.933594 489.925781 452.296875 489.925781 L 348.238281 489.925781 L 348.238281 333.316406 L 411.125 364.632812 C 415.042969 366.5625 418.964844 366.605469 423.058594 364.589844 L 478.1875 337.011719 C 482.921875 334.648438 485.855469 329.957031 485.855469 324.789062 C 485.855469 315.199219 475.78125 307.671875 466.023438 312.566406 L 415.933594 337.496094 L 381.714844 313.839844 C 366 303.007812 347.625 297.269531 328.53125 297.269531 L 306.949219 297.269531 C 261.425781 297.269531 224.390625 334.304688 224.390625 379.832031 L 196.867188 379.832031 C 196.867188 319.136719 246.257812 269.746094 306.949219 269.746094 L 328.53125 269.746094 C 353.21875 269.746094 377.019531 277.160156 397.355469 291.199219 L 418.207031 305.625 L 453.714844 287.953125 C 459.554688 285.015625 465.75 283.515625 472.089844 283.515625 C 494.859375 283.515625 513.378906 302.035156 513.378906 324.804688 C 513.378906 340.460938 504.621094 354.570312 490.496094 361.640625 L 435.265625 389.277344 C 423.417969 395.085938 410.59375 395.027344 398.957031 389.332031 L 375.773438 377.785156 L 375.773438 462.421875 L 452.3125 462.421875 C 477.613281 462.421875 499.566406 479.566406 505.707031 504.125 L 525.097656 589.433594 L 532.957031 592.066406 C 554.179688 599.125 568.433594 618.929688 568.433594 641.3125 C 568.433594 656.484375 556.082031 668.832031 540.914062 668.832031 Z M 540.882812 668.832031 " fill-opacity="1" fill-rule="nonzero"/></g><g clip-path="url(#d26bbdb5be)"><path fill="#e0f4ff" d="M 527.132812 476.1875 L 719.789062 476.1875 L 719.789062 503.710938 L 527.132812 503.710938 Z M 527.132812 476.1875 " fill-opacity="1" fill-rule="nonzero"/></g><g clip-path="url(#05272aee9c)"><path fill="#39a7ff" d="M 390.1875 587.953125 L 211.296875 587.953125 C 188.527344 587.953125 170.007812 569.433594 170.007812 546.664062 C 170.007812 523.894531 188.527344 505.375 211.296875 505.375 L 390.1875 505.375 C 412.957031 505.375 431.476562 523.894531 431.476562 546.664062 C 431.476562 569.433594 412.957031 587.953125 390.1875 587.953125 Z M 211.296875 532.910156 C 203.695312 532.910156 197.527344 539.078125 197.527344 546.675781 C 197.527344 554.277344 203.695312 560.445312 211.296875 560.445312 L 390.1875 560.445312 C 397.785156 560.445312 403.957031 554.277344 403.957031 546.675781 C 403.957031 539.078125 397.785156 532.910156 390.1875 532.910156 Z M 211.296875 532.910156 " fill-opacity="1" fill-rule="nonzero"/></g><path fill="#39a7ff" d="M 300.742188 285.210938 C 266.59375 285.210938 238.816406 257.429688 238.816406 223.285156 L 238.816406 195.761719 C 238.816406 161.617188 266.59375 133.839844 300.742188 133.839844 C 334.890625 133.839844 362.667969 161.617188 362.667969 195.761719 L 362.667969 223.285156 C 362.667969 257.429688 334.890625 285.210938 300.742188 285.210938 Z M 300.742188 161.359375 C 281.765625 161.359375 266.335938 176.785156 266.335938 195.761719 L 266.335938 223.285156 C 266.335938 242.261719 281.765625 257.6875 300.742188 257.6875 C 319.71875 257.6875 335.144531 242.261719 335.144531 223.285156 L 335.144531 195.761719 C 335.144531 176.785156 319.71875 161.359375 300.742188 161.359375 Z M 300.742188 161.359375 " fill-opacity="1" fill-rule="nonzero"/><g clip-path="url(#d5ccd932c8)"><path fill="#39a7ff" d="M 183.773438 23.753906 L 211.296875 23.753906 L 211.296875 523.078125 L 183.773438 523.078125 Z M 183.773438 23.753906 " fill-opacity="1" fill-rule="nonzero"/></g><g clip-path="url(#211b48887e)"><path fill="#39a7ff" d="M 390.1875 23.753906 L 417.707031 23.753906 L 417.707031 522.863281 L 390.1875 522.863281 Z M 390.1875 23.753906 " fill-opacity="1" fill-rule="nonzero"/></g><g clip-path="url(#1df9ec3e84)"><path fill="#39a7ff" d="M 527.792969 656.746094 L 466.710938 656.746094 C 447.734375 656.746094 431.261719 643.878906 426.667969 625.492188 L 403.410156 543.070312 L 429.917969 535.601562 L 453.273438 618.40625 C 454.917969 624.933594 460.398438 629.226562 466.726562 629.226562 L 527.804688 629.226562 C 527.804688 618.535156 521.265625 609.445312 511.148438 606.085938 L 488.578125 598.542969 L 465.824219 498.40625 C 462.832031 486.414062 451.839844 477.839844 439.203125 477.839844 L 335.144531 477.839844 L 335.144531 321.230469 L 398.03125 352.542969 C 401.953125 354.476562 405.871094 354.519531 409.964844 352.5 L 465.09375 324.921875 C 469.832031 322.5625 472.765625 317.867188 472.765625 312.703125 C 472.765625 303.113281 462.6875 295.585938 452.929688 300.480469 L 402.839844 325.410156 L 368.621094 301.753906 C 352.90625 290.917969 334.53125 285.179688 315.441406 285.179688 L 293.859375 285.179688 C 248.332031 285.179688 211.296875 322.21875 211.296875 367.742188 L 183.773438 367.742188 C 183.773438 307.046875 233.164062 257.660156 293.859375 257.660156 L 315.441406 257.660156 C 340.125 257.660156 363.925781 265.074219 384.261719 279.113281 L 405.113281 293.539062 L 440.621094 275.863281 C 446.460938 272.929688 452.65625 271.425781 458.996094 271.425781 C 481.765625 271.425781 500.285156 289.945312 500.285156 312.714844 C 500.285156 328.371094 491.527344 342.484375 477.402344 349.554688 L 422.171875 377.1875 C 410.324219 383 397.5 382.941406 385.867188 377.246094 L 362.679688 365.695312 L 362.679688 450.332031 L 439.21875 450.332031 C 464.519531 450.332031 486.472656 467.480469 492.613281 492.035156 L 512.007812 577.347656 L 519.863281 579.980469 C 541.085938 587.035156 555.339844 606.84375 555.339844 629.226562 C 555.339844 644.394531 542.988281 656.746094 527.820312 656.746094 Z M 527.792969 656.746094 " fill-opacity="1" fill-rule="nonzero"/></g><g clip-path="url(#2be05de332)"><path fill="#39a7ff" d="M 46.15625 464.101562 L 197.527344 464.101562 L 197.527344 491.621094 L 46.15625 491.621094 Z M 46.15625 464.101562 " fill-opacity="1" fill-rule="nonzero"/></g><g clip-path="url(#3506265fc4)"><path fill="#39a7ff" d="M 468.75 286.425781 L 542.605469 189.332031 L 564.507812 205.996094 L 490.652344 303.085938 Z M 468.75 286.425781 " fill-opacity="1" fill-rule="nonzero"/></g><g clip-path="url(#ae45c217e9)"><path fill="#39a7ff" d="M 482.554688 166.371094 L 497.957031 143.542969 L 628.167969 231.40625 L 612.769531 254.230469 Z M 482.554688 166.371094 " fill-opacity="1" fill-rule="nonzero"/></g><g clip-path="url(#4c9b73df94)"><path fill="#39a7ff" d="M 527.890625 656.746094 L 466.808594 656.746094 C 447.832031 656.746094 431.359375 643.878906 426.765625 625.492188 L 403.511719 543.070312 L 430.015625 535.601562 L 453.371094 618.40625 C 455.015625 624.933594 460.496094 629.226562 466.824219 629.226562 L 527.90625 629.226562 C 527.90625 618.535156 521.363281 609.445312 511.246094 606.085938 L 488.675781 598.542969 L 465.921875 498.40625 C 462.929688 486.414062 451.941406 477.839844 439.304688 477.839844 L 335.246094 477.839844 L 335.246094 321.230469 L 398.128906 352.542969 C 402.050781 354.476562 405.972656 354.519531 410.066406 352.5 L 465.191406 324.921875 C 469.929688 322.5625 472.863281 317.867188 472.863281 312.703125 C 472.863281 303.113281 462.789062 295.585938 453.027344 300.480469 L 402.9375 325.410156 L 368.71875 301.753906 C 353.003906 290.917969 334.628906 285.179688 315.539062 285.179688 L 293.957031 285.179688 C 248.433594 285.179688 211.394531 322.21875 211.394531 367.742188 L 183.875 367.742188 C 183.875 307.046875 233.261719 257.660156 293.957031 257.660156 L 315.539062 257.660156 C 340.226562 257.660156 364.023438 265.074219 384.363281 279.113281 L 405.214844 293.539062 L 440.71875 275.863281 C 446.558594 272.929688 452.753906 271.425781 459.09375 271.425781 C 481.863281 271.425781 500.382812 289.945312 500.382812 312.714844 C 500.382812 328.371094 491.625 342.484375 477.5 349.554688 L 422.273438 377.1875 C 410.421875 383 397.597656 382.941406 385.964844 377.246094 L 362.78125 365.695312 L 362.78125 450.332031 L 439.316406 450.332031 C 464.621094 450.332031 486.574219 467.480469 492.710938 492.035156 L 512.105469 577.347656 L 519.960938 579.980469 C 541.183594 587.035156 555.4375 606.84375 555.4375 629.226562 C 555.4375 644.394531 543.089844 656.746094 527.917969 656.746094 Z M 527.890625 656.746094 " fill-opacity="1" fill-rule="nonzero"/></g><path fill="#39a7ff" d="M 524.578125 347.542969 L 628.152344 290.507812 L 641.429688 314.617188 L 537.855469 371.652344 Z M 524.578125 347.542969 " fill-opacity="1" fill-rule="nonzero"/><g clip-path="url(#42735d79d7)"><path fill="#39a7ff" d="M 593.726562 375.105469 L 641.679688 348.703125 L 654.953125 372.808594 L 607.003906 399.214844 Z M 593.726562 375.105469 " fill-opacity="1" fill-rule="nonzero"/></g><path fill="#39a7ff" d="M 468.847656 286.425781 L 542.703125 189.332031 L 564.605469 205.996094 L 490.75 303.085938 Z M 468.847656 286.425781 " fill-opacity="1" fill-rule="nonzero"/><path fill="#39a7ff" d="M 482.65625 166.371094 L 498.054688 143.542969 L 628.269531 231.40625 L 612.867188 254.230469 Z M 482.65625 166.371094 " fill-opacity="1" fill-rule="nonzero"/><g clip-path="url(#7a1f352118)"><path fill="#39a7ff" d="M 524.8125 347.65625 L 628.386719 290.621094 L 641.664062 314.726562 L 538.089844 371.761719 Z M 524.8125 347.65625 " fill-opacity="1" fill-rule="nonzero"/></g><g clip-path="url(#b8b30cdde0)"><path fill="#39a7ff" d="M 593.960938 375.21875 L 641.914062 348.8125 L 655.1875 372.921875 L 607.238281 399.328125 Z M 593.960938 375.21875 " fill-opacity="1" fill-rule="nonzero"/></g><path fill="#39a7ff" d="M 403.832031 655.636719 L 384.039062 655.636719 C 365.0625 655.636719 348.589844 642.769531 343.996094 624.382812 L 332.003906 576.410156 L 358.695312 569.742188 L 370.6875 617.699219 C 372.234375 623.824219 377.714844 628.117188 384.039062 628.117188 L 403.832031 628.117188 Z M 403.832031 655.636719 " fill-opacity="1" fill-rule="nonzero"/><g clip-path="url(#15487fc5d1)"><path fill="#39a7ff" d="M 390.078125 586.84375 L 211.1875 586.84375 C 188.417969 586.84375 169.898438 568.324219 169.898438 545.554688 C 169.898438 522.785156 188.417969 504.265625 211.1875 504.265625 L 390.078125 504.265625 C 412.847656 504.265625 431.367188 522.785156 431.367188 545.554688 C 431.367188 568.324219 412.847656 586.84375 390.078125 586.84375 Z M 211.1875 531.800781 C 203.589844 531.800781 197.421875 537.96875 197.421875 545.570312 C 197.421875 553.167969 203.589844 559.335938 211.1875 559.335938 L 390.078125 559.335938 C 397.679688 559.335938 403.847656 553.167969 403.847656 545.570312 C 403.847656 537.96875 397.679688 531.800781 390.078125 531.800781 Z M 211.1875 531.800781 " fill-opacity="1" fill-rule="nonzero"/></g><g clip-path="url(#037274d099)"><path fill="#39a7ff" d="M 183.667969 22.644531 L 211.1875 22.644531 L 211.1875 521.96875 L 183.667969 521.96875 Z M 183.667969 22.644531 " fill-opacity="1" fill-rule="nonzero"/></g><g clip-path="url(#7f82a8c642)"><path fill="#39a7ff" d="M 390.078125 22.644531 L 417.601562 22.644531 L 417.601562 521.753906 L 390.078125 521.753906 Z M 390.078125 22.644531 " fill-opacity="1" fill-rule="nonzero"/></g><g clip-path="url(#dc676808e7)"><path fill="#39a7ff" d="M 527.683594 655.636719 L 466.601562 655.636719 C 447.625 655.636719 431.152344 642.769531 426.558594 624.382812 L 403.304688 541.960938 L 429.808594 534.492188 L 453.164062 617.296875 C 454.808594 623.824219 460.292969 628.117188 466.617188 628.117188 L 527.699219 628.117188 C 527.699219 617.425781 521.15625 608.339844 511.039062 604.976562 L 488.46875 597.433594 L 465.714844 497.296875 C 462.722656 485.304688 451.734375 476.730469 439.097656 476.730469 L 335.039062 476.730469 L 335.039062 320.121094 L 397.921875 351.433594 C 401.84375 353.367188 405.765625 353.410156 409.859375 351.390625 L 464.984375 323.8125 C 469.722656 321.453125 472.65625 316.757812 472.65625 311.59375 C 472.65625 302.003906 462.582031 294.476562 452.820312 299.371094 L 402.730469 324.300781 L 368.511719 300.644531 C 352.796875 289.808594 334.421875 284.070312 315.332031 284.070312 L 293.75 284.070312 C 248.226562 284.070312 211.1875 321.109375 211.1875 366.632812 L 183.667969 366.632812 C 183.667969 305.9375 233.054688 256.550781 293.75 256.550781 L 315.332031 256.550781 C 340.019531 256.550781 363.816406 263.964844 384.15625 278.003906 L 405.007812 292.429688 L 440.511719 274.753906 C 446.351562 271.820312 452.546875 270.320312 458.886719 270.320312 C 481.65625 270.320312 500.175781 288.835938 500.175781 311.605469 C 500.175781 327.261719 491.417969 341.375 477.292969 348.445312 L 422.066406 376.078125 C 410.214844 381.890625 397.394531 381.832031 385.757812 376.136719 L 362.574219 364.585938 L 362.574219 449.226562 L 439.109375 449.226562 C 464.414062 449.226562 486.367188 466.371094 492.507812 490.929688 L 511.898438 576.238281 L 519.753906 578.871094 C 540.976562 585.925781 555.234375 605.734375 555.234375 628.117188 C 555.234375 643.285156 542.882812 655.636719 527.710938 655.636719 Z M 527.683594 655.636719 " fill-opacity="1" fill-rule="nonzero"/></g></svg>